<svg width="30" height="30" viewBox="0 0 30 30" fill="none" xmlns="http://www.w3.org/2000/svg">
<g id="gravity-ui:picture">
<path id="Vector" fill-rule="evenodd" clip-rule="evenodd" d="M21.5625 5.625H8.4375C7.69158 5.625 6.97621 5.92132 6.44876 6.44876C5.92132 6.97621 5.625 7.69158 5.625 8.4375V17.8631L7.42875 16.5506C7.99634 16.1382 8.68118 15.9186 9.38275 15.924C10.0843 15.9294 10.7657 16.1595 11.3269 16.5806L13.0669 17.8856L17.5069 14.0794C18.1173 13.5566 18.8983 13.2761 19.7019 13.2909C20.5054 13.3058 21.2756 13.615 21.8662 14.16L24.375 16.4756V8.4375C24.375 7.69158 24.0787 6.97621 23.5512 6.44876C23.0238 5.92132 22.3084 5.625 21.5625 5.625ZM27.1875 19.6838V8.4375C27.1875 6.94566 26.5949 5.51492 25.54 4.46002C24.4851 3.40513 23.0543 2.8125 21.5625 2.8125H8.4375C6.94566 2.8125 5.51492 3.40513 4.46002 4.46002C3.40513 5.51492 2.8125 6.94566 2.8125 8.4375V21.5625C2.8125 23.0543 3.40513 24.4851 4.46002 25.54C5.51492 26.5949 6.94566 27.1875 8.4375 27.1875H21.5625C23.0543 27.1875 24.4851 26.5949 25.54 25.54C26.5949 24.4851 27.1875 23.0543 27.1875 21.5625V19.6838ZM24.375 20.3025L19.9594 16.2263C19.875 16.1485 19.765 16.1044 19.6503 16.1023C19.5355 16.1003 19.424 16.1404 19.3369 16.215L14.04 20.7562L13.1831 21.4912L12.2812 20.8144L9.6375 18.8325C9.55745 18.7729 9.46044 18.7403 9.36061 18.7397C9.26079 18.739 9.16335 18.7702 9.0825 18.8288L5.625 21.3394V21.5625C5.625 22.3084 5.92132 23.0238 6.44876 23.5512C6.97621 24.0787 7.69158 24.375 8.4375 24.375H21.5625C22.3084 24.375 23.0238 24.0787 23.5512 23.5512C24.0787 23.0238 24.375 22.3084 24.375 21.5625V20.3025ZM14.0625 11.25C14.0625 11.9959 13.7662 12.7113 13.2387 13.2387C12.7113 13.7662 11.9959 14.0625 11.25 14.0625C10.5041 14.0625 9.78871 13.7662 9.26126 13.2387C8.73382 12.7113 8.4375 11.9959 8.4375 11.25C8.4375 10.5041 8.73382 9.78871 9.26126 9.26126C9.78871 8.73382 10.5041 8.4375 11.25 8.4375C11.9959 8.4375 12.7113 8.73382 13.2387 9.26126C13.7662 9.78871 14.0625 10.5041 14.0625 11.25Z" fill="#DDF2FD"/>
</g>
</svg>
