<svg width="78" height="78" viewBox="0 0 78 78" fill="none" xmlns="http://www.w3.org/2000/svg">
<g id="gravity-ui:circle-plus-fill">
<path id="Vector" fill-rule="evenodd" clip-rule="evenodd" d="M39 73.125C48.0505 73.125 56.7303 69.5297 63.13 63.13C69.5297 56.7303 73.125 48.0505 73.125 39C73.125 29.9495 69.5297 21.2697 63.13 14.87C56.7303 8.4703 48.0505 4.875 39 4.875C29.9495 4.875 21.2697 8.4703 14.87 14.87C8.4703 21.2697 4.875 29.9495 4.875 39C4.875 48.0505 8.4703 56.7303 14.87 63.13C21.2697 69.5297 29.9495 73.125 39 73.125ZM42.6562 26.8125C42.6562 25.8428 42.271 24.9128 41.5854 24.2271C40.8997 23.5415 39.9697 23.1562 39 23.1562C38.0303 23.1562 37.1003 23.5415 36.4146 24.2271C35.729 24.9128 35.3438 25.8428 35.3438 26.8125V35.3438H26.8125C25.8428 35.3438 24.9128 35.729 24.2271 36.4146C23.5415 37.1003 23.1562 38.0303 23.1562 39C23.1562 39.9697 23.5415 40.8997 24.2271 41.5854C24.9128 42.271 25.8428 42.6562 26.8125 42.6562H35.3438V51.1875C35.3438 52.1572 35.729 53.0872 36.4146 53.7729C37.1003 54.4585 38.0303 54.8438 39 54.8438C39.9697 54.8438 40.8997 54.4585 41.5854 53.7729C42.271 53.0872 42.6562 52.1572 42.6562 51.1875V42.6562H51.1875C52.1572 42.6562 53.0872 42.271 53.7729 41.5854C54.4585 40.8997 54.8438 39.9697 54.8438 39C54.8438 38.0303 54.4585 37.1003 53.7729 36.4146C53.0872 35.729 52.1572 35.3438 51.1875 35.3438H42.6562V26.8125Z" fill="#DDF2FD"/>
</g>
</svg>
