<svg width="26" height="26" viewBox="0 0 26 26" fill="none" xmlns="http://www.w3.org/2000/svg">
<g id="iconamoon:heart-fill">
<path id="Vector" fill-rule="evenodd" clip-rule="evenodd" d="M3.74976 5.81101C4.8878 4.71549 6.39472 4.04737 7.99901 3.927C9.6033 3.80664 11.1995 4.24195 12.5 5.15451C13.8739 4.1973 15.5715 3.77295 17.2554 3.9658C18.9393 4.15865 20.4862 4.95458 21.5887 6.19539C22.6911 7.4362 23.2683 9.03103 23.2056 10.6629C23.1429 12.2947 22.4449 13.8441 21.2503 15.0031L14.8861 21.1315C14.2532 21.7408 13.3949 22.0831 12.5 22.0831C11.6051 22.0831 10.7468 21.7408 10.1139 21.1315L3.74976 15.0042C2.48399 13.7852 1.77289 12.132 1.77289 10.4081C1.77289 8.6843 2.48399 7.02998 3.74976 5.81101Z" fill="#FC6E6E"/>
</g>
</svg>
