<svg width="27" height="26" viewBox="0 0 27 26" fill="none" xmlns="http://www.w3.org/2000/svg">
<g id="iconamoon:heart-bold">
<path id="Vector" d="M21.4549 14.2372L15.0908 20.3667C14.6688 20.7728 14.0966 21.001 13.5 21.001C12.9034 21.001 12.3312 20.7728 11.9093 20.3667L5.54514 14.2382C5.01906 13.7361 4.60116 13.1388 4.31543 12.4806C4.02971 11.8225 3.88179 11.1165 3.88017 10.4032C3.87855 9.68988 4.02326 8.98327 4.30598 8.32395C4.58871 7.66463 5.00389 7.06557 5.52768 6.56118C6.05148 6.05678 6.67357 5.65698 7.35825 5.38472C8.04294 5.11247 8.77672 4.97312 9.51747 4.97468C10.2582 4.97625 10.9914 5.11868 11.6748 5.39382C12.3582 5.66896 12.9785 6.07139 13.5 6.57799C14.5593 5.58335 15.9828 5.03062 17.4623 5.03955C18.9418 5.04848 20.358 5.61833 21.4042 6.62568C22.4505 7.63302 23.0425 8.99674 23.0519 10.4214C23.0614 11.8461 22.4876 13.217 21.4549 14.2372Z" stroke="#DDF2FD" stroke-width="2.5" stroke-linecap="round" stroke-linejoin="round"/>
</g>
</svg>
