<svg width="50" height="50" viewBox="0 0 50 50" fill="none" xmlns="http://www.w3.org/2000/svg">
<g id="octicon:x-12">
<path id="Vector" d="M9.25012 9.25012C9.53997 8.95985 9.88421 8.72957 10.2631 8.57246C10.6421 8.41534 11.0482 8.33447 11.4584 8.33447C11.8687 8.33447 12.2748 8.41534 12.6538 8.57246C13.0327 8.72957 13.3769 8.95985 13.6668 9.25012L25.0001 20.5793L36.3335 9.25012C36.6235 8.96011 36.9677 8.73007 37.3466 8.57312C37.7256 8.41617 38.1317 8.33539 38.5418 8.33539C38.9519 8.33539 39.358 8.41617 39.7369 8.57312C40.1158 8.73007 40.4601 8.96011 40.7501 9.25012C41.0401 9.54012 41.2702 9.8844 41.4271 10.2633C41.5841 10.6422 41.6648 11.0483 41.6648 11.4584C41.6648 11.8686 41.5841 12.2747 41.4271 12.6536C41.2702 13.0325 41.0401 13.3768 40.7501 13.6668L29.4209 25.0001L40.7501 36.3335C41.3358 36.9191 41.6648 37.7135 41.6648 38.5418C41.6648 39.3701 41.3358 40.1644 40.7501 40.7501C40.1644 41.3358 39.3701 41.6648 38.5418 41.6648C37.7135 41.6648 36.9191 41.3358 36.3335 40.7501L25.0001 29.4209L13.6668 40.7501C13.0811 41.3358 12.2867 41.6648 11.4584 41.6648C10.6302 41.6648 9.8358 41.3358 9.25012 40.7501C8.66443 40.1644 8.33539 39.3701 8.33539 38.5418C8.33539 37.7135 8.66443 36.9191 9.25012 36.3335L20.5793 25.0001L9.25012 13.6668C8.95985 13.3769 8.72957 13.0327 8.57246 12.6538C8.41534 12.2748 8.33447 11.8687 8.33447 11.4584C8.33447 11.0482 8.41534 10.6421 8.57246 10.2631C8.72957 9.88421 8.95985 9.53997 9.25012 9.25012Z" fill="#DDF2FD"/>
</g>
</svg>
