<svg width="40" height="40" viewBox="0 0 40 40" fill="none" xmlns="http://www.w3.org/2000/svg">
<path id="Vector" d="M15.965 1.05145e-06C13.4663 0.00133632 11.0027 0.58873 8.77231 1.71497C6.54191 2.84121 4.60689 4.47488 3.12278 6.48469C1.63867 8.49449 0.646851 10.8244 0.22705 13.287C-0.192751 15.7497 -0.0288282 18.2765 0.705644 20.6644C1.44012 23.0522 2.72465 25.2345 4.45601 27.0357C6.18736 28.837 8.31724 30.2071 10.6745 31.0359C13.0317 31.8646 15.5505 32.1289 18.0285 31.8075C20.5064 31.4862 22.8744 30.588 24.9421 29.1854L34.8138 39.0469C35.088 39.3411 35.4186 39.5771 35.786 39.7408C36.1534 39.9044 36.55 39.9924 36.9521 39.9995C37.3543 40.0066 37.7537 39.9327 38.1267 39.7821C38.4996 39.6315 38.8384 39.4073 39.1228 39.123C39.4072 38.8386 39.6314 38.4999 39.782 38.1271C39.9326 37.7542 40.0066 37.3548 39.9995 36.9528C39.9924 36.5507 39.9044 36.1542 39.7407 35.7869C39.577 35.4196 39.341 35.089 39.0467 34.8149L29.1831 24.9453C30.8149 22.5441 31.7613 19.7437 31.9203 16.845C32.0794 13.9464 31.4452 11.0592 30.0859 8.49395C28.7266 5.92869 26.6937 3.78238 24.2056 2.28579C21.7176 0.789201 18.8686 -0.0010522 15.965 1.05145e-06ZM5.98154 15.9701C5.98154 13.3229 7.03336 10.7841 8.90562 8.91226C10.7779 7.0404 13.3172 5.9888 15.965 5.9888C18.6128 5.9888 21.1521 7.0404 23.0244 8.91226C24.8966 10.7841 25.9485 13.3229 25.9485 15.9701C25.9485 18.6173 24.8966 21.1561 23.0244 23.028C21.1521 24.8998 18.6128 25.9514 15.965 25.9514C13.3172 25.9514 10.7779 24.8998 8.90562 23.028C7.03336 21.1561 5.98154 18.6173 5.98154 15.9701Z" fill="#DDF2FD"/>
</svg>
